{
  "accessors": [
    {
      "bufferView": 2,
      "componentType": 5126,
      "count": 4440,
      "max": [
        14.321487426757812,
        11.336471557617188,
        73.182098388671875
      ],
      "min": [
        -33.122684478759766,
        -18.214532852172852,
        11.007041931152344
      ],
      "type": "VEC3"
    },
    {
      "bufferView": 2,
      "byteOffset": 53280,
      "componentType": 5126,
      "count": 4440,
      "max": [
        0.99955612421035767,
        0.9999082088470459,
        0.99881654977798462
      ],
      "min": [
        -0.99964135885238647,
        -0.99990862607955933,
        -0.99950593709945679
      ],
      "type": "VEC3"
    },
    {
      "bufferView": 1,
      "componentType": 5126,
      "count": 4440,
      "max": [
        0.99537801742553711,
        0.99133801460266113
      ],
      "min": [
        0.0046210000291466713,
        0.0046169999986886978
      ],
      "type": "VEC2"
    },
    {
      "bufferView": 0,
      "componentType": 5125,
      "count": 9669,
      "max": [
        4439
      ],
      "min": [
        0
      ],
      "type": "SCALAR"
    },
    {
      "bufferView": 2,
      "byteOffset": 106560,
      "componentType": 5126,
      "count": 168,
      "max": [
        12.944450378417969,
        0.042316000908613205,
        84.043724060058594
      ],
      "min": [
        -33.992198944091797,
        -23.448556900024414,
        58.743873596191406
      ],
      "type": "VEC3"
    },
    {
      "bufferView": 2,
      "byteOffset": 108576,
      "componentType": 5126,
      "count": 168,
      "max": [
        0.99457353353500366,
        0.89802277088165283,
        0.98748409748077393
      ],
      "min": [
        -0.99457335472106934,
        -0.89802348613739014,
        -0.98748385906219482
      ],
      "type": "VEC3"
    },
    {
      "bufferView": 1,
      "byteOffset": 35520,
      "componentType": 5126,
      "count": 168,
      "max": [
        0.875,
        1
      ],
      "min": [
        0.125,
        0
      ],
      "type": "VEC2"
    },
    {
      "bufferView": 0,
      "byteOffset": 38676,
      "componentType": 5125,
      "count": 252,
      "max": [
        167
      ],
      "min": [
        0
      ],
      "type": "SCALAR"
    },
    {
      "bufferView": 2,
      "byteOffset": 110592,
      "componentType": 5126,
      "count": 6822,
      "max": [
        0.67763799428939819,
        3.8932230472564697,
        83.327804565429688
      ],
      "min": [
        -15.670109748840332,
        -11.711461067199707,
        68.837554931640625
      ],
      "type": "VEC3"
    },
    {
      "bufferView": 2,
      "byteOffset": 192456,
      "componentType": 5126,
      "count": 6822,
      "max": [
        0.99994266033172607,
        0.99924564361572266,
        0.99968075752258301
      ],
      "min": [
        -0.9996267557144165,
        -0.99976325035095215,
        -0.99976599216461182
      ],
      "type": "VEC3"
    },
    {
      "bufferView": 1,
      "byteOffset": 36864,
      "componentType": 5126,
      "count": 6822,
      "max": [
        0.99422299861907959,
        0.98189699649810791
      ],
      "min": [
        0.02767300046980381,
        0.0092580001801252365
      ],
      "type": "VEC2"
    },
    {
      "bufferView": 0,
      "byteOffset": 39684,
      "componentType": 5125,
      "count": 18024,
      "max": [
        6821
      ],
      "min": [
        0
      ],
      "type": "SCALAR"
    },
    {
      "bufferView": 2,
      "byteOffset": 274320,
      "componentType": 5126,
      "count": 9997,
      "max": [
        14.321487426757812,
        11.909207344055176,
        72.905738830566406
      ],
      "min": [
        -33.122684478759766,
        -18.214532852172852,
        12.310386657714844
      ],
      "type": "VEC3"
    },
    {
      "bufferView": 2,
      "byteOffset": 394284,
      "componentType": 5126,
      "count": 9997,
      "max": [
        0.99981862306594849,
        0.99987775087356567,
        0.99956697225570679
      ],
      "min": [
        -0.99988448619842529,
        -0.99989199638366699,
        -0.99913835525512695
      ],
      "type": "VEC3"
    },
    {
      "bufferView": 1,
      "byteOffset": 91440,
      "componentType": 5126,
      "count": 9997,
      "max": [
        0.99537801742553711,
        0.98944801092147827
      ],
      "min": [
        0.004621999803930521,
        0.0046210000291466713
      ],
      "type": "VEC2"
    },
    {
      "bufferView": 0,
      "byteOffset": 111780,
      "componentType": 5125,
      "count": 28680,
      "max": [
        9996
      ],
      "min": [
        0
      ],
      "type": "SCALAR"
    },
    {
      "bufferView": 2,
      "byteOffset": 514248,
      "componentType": 5126,
      "count": 9965,
      "max": [
        14.286869049072266,
        11.909207344055176,
        73.182098388671875
      ],
      "min": [
        -28.470588684082031,
        -15.260361671447754,
        18.369590759277344
      ],
      "type": "VEC3"
    },
    {
      "bufferView": 2,
      "byteOffset": 633828,
      "componentType": 5126,
      "count": 9965,
      "max": [
        0.99997061491012573,
        0.99967426061630249,
        0.99982625246047974
      ],
      "min": [
        -0.99995726346969604,
        -0.99968165159225464,
        -0.99651575088500977
      ],
      "type": "VEC3"
    },
    {
      "bufferView": 1,
      "byteOffset": 171416,
      "componentType": 5126,
      "count": 9965,
      "max": [
        0.99449402093887329,
        0.9953799843788147
      ],
      "min": [
        0.0046210000291466713,
        0.0046210000291466713
      ],
      "type": "VEC2"
    },
    {
      "bufferView": 0,
      "byteOffset": 226500,
      "componentType": 5125,
      "count": 26736,
      "max": [
        9964
      ],
      "min": [
        0
      ],
      "type": "SCALAR"
    },
    {
      "bufferView": 2,
      "byteOffset": 753408,
      "componentType": 5126,
      "count": 2949,
      "max": [
        12.906644821166992,
        10.977080345153809,
        70.297264099121094
      ],
      "min": [
        -28.401222229003906,
        -15.260361671447754,
        19.146919250488281
      ],
      "type": "VEC3"
    },
    {
      "bufferView": 2,
      "byteOffset": 788796,
      "componentType": 5126,
      "count": 2949,
      "max": [
        0.99978125095367432,
        0.99950873851776123,
        0.99871790409088135
      ],
      "min": [
        -0.99982374906539917,
        -0.99974453449249268,
        -0.99847513437271118
      ],
      "type": "VEC3"
    },
    {
      "bufferView": 1,
      "byteOffset": 251136,
      "componentType": 5126,
      "count": 2949,
      "max": [
        0.99438697099685669,
        0.995402991771698
      ],
      "min": [
        0.0046210000291466713,
        0.004621999803930521
      ],
      "type": "VEC2"
    },
    {
      "bufferView": 0,
      "byteOffset": 333444,
      "componentType": 5125,
      "count": 8079,
      "max": [
        2948
      ],
      "min": [
        0
      ],
      "type": "SCALAR"
    }
  ],
  "asset": {
    "extras": {
      "author": "Ramenya (https://sketchfab.com/ramenya)",
      "license": "CC-BY-NC-ND-4.0 (http://creativecommons.org/licenses/by-nc-nd/4.0/)",
      "source": "https://sketchfab.com/3d-models/moonmecha-00f90a5f588f4cda8006ebcbad889ce8",
      "title": "MoonMecha"
    },
    "generator": "Sketchfab-10.25.0",
    "version": "2.0"
  },
  "bufferViews": [
    {
      "buffer": 0,
      "byteLength": 365760,
      "byteOffset": 0,
      "name": "floatBufferViews",
      "target": 34963
    },
    {
      "buffer": 0,
      "byteLength": 274728,
      "byteOffset": 365760,
      "byteStride": 8,
      "name": "floatBufferViews",
      "target": 34962
    },
    {
      "buffer": 0,
      "byteLength": 824184,
      "byteOffset": 640488,
      "byteStride": 12,
      "name": "floatBufferViews",
      "target": 34962
    }
  ],
  "buffers": [
    {
      "byteLength": 1464672,
      "uri": "scene.bin"
    }
  ],
  "images": [
    {
      "uri": "textures/StingrayPBS1SG_baseColor.png"
    },
    {
      "uri": "textures/StingrayPBS1SG_metallicRoughness.png"
    },
    {
      "uri": "textures/StingrayPBS1SG_emissive.png"
    },
    {
      "uri": "textures/StingrayPBS2SG_baseColor.png"
    },
    {
      "uri": "textures/StingrayPBS2SG_metallicRoughness.png"
    }
  ],
  "materials": [
    {
      "doubleSided": true,
      "emissiveFactor": [
        1,
        1,
        1
      ],
      "emissiveTexture": {
        "index": 2,
        "texCoord": 0
      },
      "name": "StingrayPBS1SG",
      "pbrMetallicRoughness": {
        "baseColorFactor": [
          1,
          1,
          1,
          1
        ],
        "baseColorTexture": {
          "index": 0,
          "texCoord": 0
        },
        "metallicFactor": 1,
        "metallicRoughnessTexture": {
          "index": 1,
          "texCoord": 0
        },
        "roughnessFactor": 1
      }
    },
    {
      "doubleSided": true,
      "name": "StingrayPBS2SG",
      "pbrMetallicRoughness": {
        "baseColorFactor": [
          1,
          1,
          1,
          1
        ],
        "baseColorTexture": {
          "index": 3,
          "texCoord": 0
        },
        "metallicFactor": 1,
        "metallicRoughnessTexture": {
          "index": 4,
          "texCoord": 0
        },
        "roughnessFactor": 1
      }
    },
    {
      "alphaMode": "BLEND",
      "doubleSided": true,
      "emissiveFactor": [
        0,
        1,
        1
      ],
      "name": "StingrayPBS3SG",
      "pbrMetallicRoughness": {
        "baseColorFactor": [
          0.056015938248073882,
          0.1353898425162986,
          0.645121519804432,
          0.32941455873246805
        ],
        "metallicFactor": 0,
        "roughnessFactor": 0
      }
    }
  ],
  "meshes": [
    {
      "primitives": [
        {
          "attributes": {
            "NORMAL": 1,
            "POSITION": 0,
            "TEXCOORD_0": 2
          },
          "indices": 3,
          "material": 1,
          "mode": 4
        }
      ]
    },
    {
      "primitives": [
        {
          "attributes": {
            "NORMAL": 5,
            "POSITION": 4,
            "TEXCOORD_0": 6
          },
          "indices": 7,
          "material": 2,
          "mode": 4
        }
      ]
    },
    {
      "primitives": [
        {
          "attributes": {
            "NORMAL": 9,
            "POSITION": 8,
            "TEXCOORD_0": 10
          },
          "indices": 11,
          "material": 0,
          "mode": 4
        }
      ]
    },
    {
      "primitives": [
        {
          "attributes": {
            "NORMAL": 13,
            "POSITION": 12,
            "TEXCOORD_0": 14
          },
          "indices": 15,
          "material": 1,
          "mode": 4
        }
      ]
    },
    {
      "primitives": [
        {
          "attributes": {
            "NORMAL": 17,
            "POSITION": 16,
            "TEXCOORD_0": 18
          },
          "indices": 19,
          "material": 1,
          "mode": 4
        }
      ]
    },
    {
      "primitives": [
        {
          "attributes": {
            "NORMAL": 21,
            "POSITION": 20,
            "TEXCOORD_0": 22
          },
          "indices": 23,
          "material": 1,
          "mode": 4
        }
      ]
    }
  ],
  "nodes": [
    {
      "children": [
        1
      ],
      "name": "RootNode (gltf orientation matrix)",
      "rotation": [
        -0.70710678118654746,
        -0,
        -0,
        0.70710678118654757
      ]
    },
    {
      "children": [
        2
      ],
      "name": "RootNode (model correction matrix)"
    },
    {
      "children": [
        3,
        4,
        5,
        6,
        7,
        8
      ],
      "name": "moonmecha.obj.cleaner.materialmerger.gles"
    },
    {
      "mesh": 0,
      "name": ""
    },
    {
      "mesh": 1,
      "name": ""
    },
    {
      "mesh": 2,
      "name": ""
    },
    {
      "mesh": 3,
      "name": ""
    },
    {
      "mesh": 4,
      "name": ""
    },
    {
      "mesh": 5,
      "name": ""
    }
  ],
  "samplers": [
    {
      "magFilter": 9729,
      "minFilter": 9987,
      "wrapS": 10497,
      "wrapT": 10497
    }
  ],
  "scene": 0,
  "scenes": [
    {
      "name": "OSG_Scene",
      "nodes": [
        0
      ]
    }
  ],
  "textures": [
    {
      "sampler": 0,
      "source": 0
    },
    {
      "sampler": 0,
      "source": 1
    },
    {
      "sampler": 0,
      "source": 2
    },
    {
      "sampler": 0,
      "source": 3
    },
    {
      "sampler": 0,
      "source": 4
    }
  ]
}

